<?xml version="1.0" standalone="no"?>
<!DOCTYPE svg PUBLIC "-//W3C//DTD SVG 20010904//EN"
 "http://www.w3.org/TR/2001/REC-SVG-20010904/DTD/svg10.dtd">
<svg version="1.0" xmlns="http://www.w3.org/2000/svg"
 width="500.000000pt" height="500.000000pt" viewBox="0 0 500.000000 500.000000"
 preserveAspectRatio="xMidYMid meet">
<metadata>
Created by potrace 1.16, written by Peter Selinger 2001-2019
</metadata>
<g transform="translate(0.000000,500.000000) scale(0.100000,-0.100000)"
fill="#000000" stroke="none">
<path d="M2380 4108 c-99 -9 -118 -13 -230 -49 -90 -30 -170 -68 -235 -113
-16 -12 -42 -28 -57 -36 -36 -20 -210 -191 -228 -224 -7 -14 -17 -26 -22 -26
-4 0 -8 -6 -8 -14 0 -8 -11 -27 -24 -43 -54 -64 -142 -300 -151 -408 -2 -22
-7 -74 -11 -116 -7 -80 5 -196 32 -308 9 -36 17 -73 19 -82 2 -10 14 -40 26
-66 12 -26 23 -50 23 -53 5 -24 103 -186 128 -213 56 -58 92 -102 90 -110 -1
-4 2 -6 6 -5 5 2 35 -21 66 -49 31 -29 64 -53 72 -53 8 0 12 -4 9 -10 -3 -5 1
-10 11 -10 9 0 25 -9 35 -21 9 -11 19 -19 21 -18 8 5 48 -14 48 -23 0 -6 3 -9
6 -5 4 3 25 -4 48 -15 22 -12 43 -22 46 -23 24 -3 100 -29 100 -34 0 -3 21 -7
47 -9 26 -2 51 -6 57 -10 6 -3 18 -8 26 -10 27 -7 328 -7 324 0 -4 5 66 18
126 23 14 1 39 11 95 37 12 5 27 10 35 12 90 15 420 254 420 303 0 7 7 13 15
13 8 0 15 6 15 13 0 7 12 26 28 43 15 17 34 43 42 60 8 16 19 32 25 36 5 4 7
8 3 8 -4 0 5 24 21 53 15 28 28 54 29 57 0 3 5 16 10 30 16 42 44 143 48 175
2 16 9 62 15 102 12 77 7 222 -11 316 -6 31 -9 61 -6 66 3 5 -1 14 -9 21 -12
10 -29 9 -86 -5 -64 -16 -70 -20 -66 -39 3 -11 11 -40 16 -64 16 -63 21 -195
10 -291 -10 -85 -57 -240 -90 -296 -10 -16 -26 -46 -36 -65 -9 -19 -22 -38
-27 -42 -6 -4 -8 -8 -4 -8 4 0 -9 -17 -27 -37 -19 -21 -35 -42 -35 -46 0 -8
-58 -67 -66 -67 -2 0 -14 -10 -27 -22 -39 -39 -87 -78 -93 -78 -3 0 -20 -11
-38 -25 -18 -14 -36 -22 -39 -18 -4 3 -7 2 -7 -4 0 -9 -68 -40 -155 -72 -79
-28 -177 -43 -285 -43 -63 0 -126 3 -140 5 -116 22 -286 84 -302 110 -4 7 -8
8 -8 4 0 -5 -14 3 -31 17 -17 14 -37 26 -45 26 -7 0 -21 11 -30 25 -9 14 -20
23 -24 20 -5 -3 -17 6 -28 20 -11 14 -23 25 -27 25 -11 0 -55 44 -55 55 0 6
-8 18 -18 27 -38 35 -62 66 -62 80 0 8 -9 24 -20 36 -12 12 -18 22 -15 22 3 0
-4 9 -15 20 -11 11 -20 28 -20 39 0 10 -7 24 -15 31 -13 10 -26 54 -26 85 0 6
-7 17 -15 26 -8 9 -17 39 -18 67 -2 28 -7 55 -10 60 -18 30 -6 304 16 345 5
10 7 21 4 24 -3 3 4 23 14 44 11 21 20 43 20 49 0 15 41 104 50 110 4 3 20 27
34 54 15 28 41 68 59 89 60 74 177 186 177 169 0 -4 4 -2 8 3 23 32 205 126
248 129 13 0 24 4 24 7 0 9 76 28 140 35 30 3 75 8 100 11 46 6 184 -10 254
-28 30 -8 41 -8 47 2 4 7 5 17 3 21 -3 4 -2 8 3 8 4 0 9 12 11 28 9 88 12 85
-93 102 -88 14 -217 17 -315 8z"/>
<path d="M2350 3848 c-14 -4 -65 -19 -114 -34 -49 -14 -111 -39 -138 -55 -27
-16 -51 -29 -54 -29 -17 0 -217 -200 -234 -234 -3 -6 -15 -27 -27 -46 -12 -19
-22 -39 -22 -44 1 -5 -3 -12 -8 -15 -8 -6 -23 -46 -59 -166 -23 -75 -26 -304
-4 -375 7 -25 14 -47 15 -50 1 -3 5 -20 9 -38 8 -34 52 -124 81 -164 8 -13 15
-30 15 -40 0 -10 7 -18 15 -18 8 0 15 -4 15 -8 0 -11 48 -68 83 -101 16 -14
43 -40 60 -57 18 -17 50 -39 72 -49 22 -11 43 -23 46 -28 3 -5 8 -8 10 -7 5 2
55 -18 83 -32 11 -6 33 -12 50 -15 17 -3 49 -12 71 -20 50 -18 254 -26 315
-12 56 13 75 17 125 24 22 3 46 12 55 19 8 7 38 24 65 37 28 13 53 28 57 34 5
7 8 7 8 0 0 -7 3 -7 8 0 4 6 27 23 52 39 38 25 72 57 145 137 8 9 15 21 15 27
0 5 3 12 8 14 13 6 58 72 71 106 8 17 18 32 23 32 5 0 6 5 3 10 -4 6 -2 17 4
24 6 7 13 23 15 37 3 13 5 25 7 27 1 1 2 5 3 10 2 4 8 25 14 47 19 68 26 225
12 316 -16 115 -20 120 -67 103 -21 -7 -48 -13 -60 -14 -28 0 -35 -13 -24 -42
5 -12 12 -61 15 -109 12 -147 -22 -288 -100 -415 -43 -71 -133 -174 -151 -174
-5 0 -22 -13 -38 -30 -15 -16 -32 -27 -37 -24 -4 3 -8 2 -8 -3 0 -16 -131 -70
-204 -84 -116 -23 -303 -13 -366 21 -11 6 -20 8 -20 5 0 -6 -86 40 -106 56 -6
5 -14 6 -17 2 -4 -3 -7 1 -7 10 0 10 -8 17 -20 17 -11 0 -23 7 -26 15 -4 8
-10 15 -15 15 -13 0 -89 76 -89 89 0 6 -4 11 -8 11 -4 0 -19 18 -32 40 -14 22
-28 40 -32 40 -5 0 -8 5 -8 11 0 5 -13 38 -29 72 -42 89 -53 143 -55 272 -1
85 9 147 40 229 32 86 104 205 123 206 8 0 12 3 8 6 -9 9 72 88 123 120 88 55
167 92 233 107 48 11 67 12 67 4 0 -8 3 -7 9 1 13 21 184 13 272 -14 9 -2 16
1 17 8 0 7 3 24 7 38 22 88 22 87 -36 101 -59 14 -289 19 -329 7z"/>
<path d="M2486 3618 c3 -4 -20 -8 -50 -8 -61 0 -157 -32 -241 -79 -54 -31
-156 -126 -180 -170 -74 -132 -96 -207 -96 -328 -1 -76 19 -213 31 -213 4 0
12 -17 18 -38 6 -21 21 -48 32 -60 11 -12 18 -22 14 -22 -4 0 9 -16 29 -36 20
-20 34 -41 31 -45 -3 -5 0 -9 6 -9 6 0 24 -14 40 -30 17 -17 30 -28 30 -24 0
4 8 0 18 -9 22 -20 124 -67 171 -79 20 -5 45 -11 56 -14 11 -3 61 -5 111 -6
90 0 117 5 221 44 29 11 55 19 58 19 3 -1 17 10 32 23 15 14 30 23 34 21 4 -3
9 2 13 10 3 8 13 15 21 15 9 0 14 4 11 9 -7 11 18 33 27 24 4 -3 7 1 7 9 0 9
4 18 8 20 16 6 92 122 92 139 0 10 4 21 10 24 19 11 45 145 44 225 0 63 -13
153 -22 162 -4 4 -34 2 -66 -4 -51 -11 -56 -15 -50 -33 10 -31 14 -205 5 -223
-5 -9 -14 -35 -21 -57 -15 -49 -82 -150 -124 -188 -47 -42 -155 -94 -216 -105
-30 -6 -83 -9 -116 -8 -69 4 -174 33 -174 49 0 6 -3 7 -6 4 -19 -19 -183 141
-199 194 -4 13 -11 29 -15 34 -27 36 -52 257 -30 270 5 3 10 13 10 22 0 31 61
141 104 187 23 25 40 48 38 51 -3 3 1 5 9 5 9 0 24 8 35 18 10 9 33 23 49 31
17 7 39 18 49 23 35 19 195 35 223 23 10 -4 32 -9 49 -10 29 -2 31 0 43 53 8
36 9 58 3 64 -6 6 -42 13 -81 16 -39 2 -69 8 -67 11 3 4 -4 7 -14 7 -10 0 -16
-4 -14 -8z"/>
<path d="M3655 1651 c-11 -5 -23 -6 -28 -4 -10 6 -37 -60 -37 -92 0 -24 -5
-28 -42 -28 -14 0 -15 -4 -8 -18 6 -10 10 -31 10 -48 0 -24 4 -29 19 -26 18 3
19 -5 20 -122 1 -84 -1 -123 -8 -118 -7 3 -8 0 -5 -9 5 -12 21 -16 65 -16 l59
0 0 130 c0 126 1 130 23 134 53 12 70 3 86 -46 9 -26 19 -50 24 -54 4 -4 7
-17 7 -28 0 -12 6 -31 14 -42 8 -11 16 -29 18 -39 1 -11 7 -23 11 -26 4 -3 5
-14 1 -23 -5 -14 -14 -17 -41 -13 -32 6 -36 3 -49 -28 -8 -19 -14 -39 -14 -44
0 -32 144 -30 178 1 12 12 22 26 22 32 0 5 8 28 19 50 10 23 35 88 55 146 38
106 51 141 67 172 15 30 11 33 -50 33 l-59 0 -28 -93 c-26 -88 -38 -111 -51
-98 -3 3 -6 19 -7 35 -1 16 -4 27 -7 25 -4 -2 -10 13 -14 34 -4 20 -13 51 -21
67 -14 31 -15 31 -96 30 -73 0 -83 2 -86 19 -4 17 0 18 41 13 l44 -6 -4 42
c-2 23 -6 47 -8 53 -4 13 -92 16 -120 5z"/>
<path d="M1050 1634 c-41 -8 -80 -26 -80 -37 0 -6 -3 -7 -6 -4 -11 11 -74 -76
-85 -118 -15 -55 -4 -164 19 -187 7 -7 12 -15 12 -19 0 -10 52 -62 80 -80 17
-11 53 -17 113 -18 73 -2 95 1 131 20 63 31 69 53 29 97 l-32 35 -33 -25 c-59
-45 -128 -43 -171 3 -10 10 -15 19 -12 19 4 0 -1 7 -10 16 -9 9 -14 23 -11 30
3 8 1 14 -4 14 -6 0 -10 12 -10 26 0 14 4 23 9 20 5 -4 7 2 4 12 -3 11 9 32
30 56 48 52 96 58 162 21 l48 -26 35 34 c30 30 32 37 21 54 -26 42 -154 73
-239 57z"/>
<path d="M3187 1623 c-4 -3 -7 -26 -7 -50 0 -39 -3 -44 -32 -57 -18 -7 -37
-10 -43 -6 -23 17 -112 31 -135 22 -14 -5 -29 -10 -35 -11 -28 -2 -76 -39 -95
-73 -50 -89 -26 -194 57 -251 35 -23 52 -27 113 -28 68 -1 73 0 106 32 30 29
32 34 19 49 -8 9 -13 20 -10 23 3 4 2 5 -1 2 -4 -2 -16 2 -27 10 -18 12 -23
12 -48 -5 -35 -26 -73 -25 -98 1 -39 42 -36 92 7 142 20 23 73 22 101 -2 22
-19 23 -19 53 -2 55 34 66 21 71 -82 6 -139 13 -153 82 -166 27 -5 54 -7 59
-4 5 4 54 6 108 5 91 -2 98 -1 90 16 -4 9 -7 28 -6 42 1 14 3 84 4 155 l2 130
-53 6 c-30 3 -56 5 -59 3 -3 -1 -3 -76 0 -166 5 -151 4 -164 -12 -164 -14 0
-18 9 -18 39 l0 38 -35 -7 c-31 -6 -36 -4 -45 22 -6 15 -10 53 -8 83 l3 56 43
3 43 3 -3 47 c-2 34 -7 46 -17 44 -8 -2 -27 0 -43 4 -28 6 -30 8 -26 49 l3 42
-37 -5 c-21 -2 -44 0 -51 7 -8 6 -17 8 -20 4z"/>
<path d="M1465 1534 c-48 -10 -95 -28 -95 -35 0 -5 -12 -20 -27 -34 -15 -14
-24 -25 -20 -25 4 0 2 -10 -4 -22 -7 -12 -13 -47 -14 -78 -1 -38 -5 -54 -14
-52 -7 1 -9 -2 -6 -8 4 -6 13 -9 21 -6 8 3 14 1 14 -5 0 -6 20 -30 43 -53 38
-36 50 -42 92 -45 27 -1 52 -4 57 -7 10 -6 88 15 88 24 0 4 10 12 22 17 13 6
32 27 44 48 11 20 23 35 25 33 6 -6 -7 111 -16 147 -4 15 -16 32 -26 38 -11 5
-19 17 -19 25 0 8 -4 13 -9 9 -5 -3 -12 -1 -15 4 -5 8 -27 13 -101 26 -11 2
-29 1 -40 -1z m90 -117 c56 -48 21 -157 -50 -157 -46 0 -95 47 -95 90 0 21 4
29 12 24 7 -4 8 -3 4 5 -5 7 2 22 16 36 31 31 79 32 113 2z"/>
<path d="M1885 1527 c-32 -14 -44 -15 -60 -6 -5 3 -33 6 -62 7 -45 3 -51 1
-48 -15 2 -10 4 -92 4 -183 l1 -165 53 3 54 4 0 109 c0 104 1 110 27 135 24
25 29 26 51 14 13 -7 22 -17 19 -22 -3 -4 0 -8 5 -8 7 0 11 -40 11 -114 l0
-114 51 -4 c53 -3 80 4 60 17 -8 4 -11 46 -10 130 1 135 -10 186 -44 203 -38
19 -81 22 -112 9z"/>
<path d="M2272 1529 c-34 -13 -72 -19 -72 -11 0 4 -24 8 -53 9 l-52 3 3 -156
c3 -97 0 -160 -6 -166 -23 -23 0 -38 54 -38 l54 0 0 110 c0 86 3 112 14 116 8
3 16 14 19 25 6 24 28 24 58 0 22 -18 24 -27 26 -128 1 -59 3 -112 3 -116 0
-4 23 -7 51 -5 l51 3 -1 138 c-2 118 -5 142 -22 172 -11 19 -28 36 -37 39 -46
12 -69 13 -90 5z"/>
<path d="M2610 1536 c-3 -2 -17 -7 -30 -10 -36 -7 -86 -24 -76 -25 5 -1 0 -11
-11 -23 -33 -38 -46 -84 -40 -146 5 -62 27 -107 63 -135 29 -22 147 -37 191
-25 74 20 93 69 38 98 -20 11 -30 10 -65 -4 -43 -17 -80 -14 -80 6 0 6 -3 8
-7 5 -7 -8 -33 11 -33 25 0 5 50 8 120 6 l120 -3 0 41 c0 50 -24 122 -48 144
-16 15 -43 29 -67 36 -38 10 -71 15 -75 10z"/>
</g>
</svg>
